#tb 0: 10000/300003
0,          0,          0,        1,    57600, 0x8c3c5ee8
0,          1,          1,        1,    57600, 0xb79800b1
0,          2,          2,        1,    57600, 0x54a221be
0,          3,          3,        1,    57600, 0xb377ffb3
0,          4,          4,        1,    57600, 0x46efd210
0,          5,          5,        1,    57600, 0x46efd210
0,          6,          6,        1,    57600, 0x46efd210
0,          7,          7,        1,    57600, 0x92751fbc
0,          8,          8,        1,    57600, 0xd7287442
0,          9,          9,        1,    57600, 0xcf1153ee
0,         10,         10,        1,    57600, 0xda5de91a
0,         11,         11,        1,    57600, 0xa11cd513
0,         12,         12,        1,    57600, 0xa8edac2a
0,         13,         13,        1,    57600, 0xefd2a392
0,         14,         14,        1,    57600, 0x2d7060cf
0,         15,         15,        1,    57600, 0xbda3130d
0,         16,         16,        1,    57600, 0xacb8e940
0,         17,         17,        1,    57600, 0x93778985
0,         18,         18,        1,    57600, 0x25ed4d97
0,         19,         19,        1,    57600, 0x5be924bf
0,         20,         20,        1,    57600, 0xde5ee1f7
0,         21,         21,        1,    57600, 0x39850ab6
0,         22,         22,        1,    57600, 0x77da195d
0,         23,         23,        1,    57600, 0x6dad13c0
0,         24,         24,        1,    57600, 0x69897c48
0,         25,         25,        1,    57600, 0xfbe74728
0,         26,         26,        1,    57600, 0x908af79d
0,         27,         27,        1,    57600, 0x4ec4a868
0,         28,         28,        1,    57600, 0x7db370a1
0,         29,         29,        1,    57600, 0x2b1e52f6
0,         30,         30,        1,    57600, 0x2141467c
